<svg id="visual" viewBox="0 0 1200 300" width="1200" height="300" xmlns="http://www.w3.org/2000/svg" xmlns:xlink="http://www.w3.org/1999/xlink" version="1.1"><path d="M0 70L28.5 80.8C57 91.7 114 113.3 171.2 112C228.3 110.7 285.7 86.3 342.8 88C400 89.7 457 117.3 514.2 117.3C571.3 117.3 628.7 89.7 685.8 84.2C743 78.7 800 95.3 857.2 95.5C914.3 95.7 971.7 79.3 1028.8 78C1086 76.7 1143 90.3 1171.5 97.2L1200 104L1200 301L1171.5 301C1143 301 1086 301 1028.8 301C971.7 301 914.3 301 857.2 301C800 301 743 301 685.8 301C628.7 301 571.3 301 514.2 301C457 301 400 301 342.8 301C285.7 301 228.3 301 171.2 301C114 301 57 301 28.5 301L0 301Z" fill="#97deff"></path><path d="M0 148L28.5 147.5C57 147 114 146 171.2 143C228.3 140 285.7 135 342.8 129.5C400 124 457 118 514.2 123.8C571.3 129.7 628.7 147.3 685.8 149.3C743 151.3 800 137.7 857.2 128.8C914.3 120 971.7 116 1028.8 113.5C1086 111 1143 110 1171.5 109.5L1200 109L1200 301L1171.5 301C1143 301 1086 301 1028.8 301C971.7 301 914.3 301 857.2 301C800 301 743 301 685.8 301C628.7 301 571.3 301 514.2 301C457 301 400 301 342.8 301C285.7 301 228.3 301 171.2 301C114 301 57 301 28.5 301L0 301Z" fill="#76b6e9"></path><path d="M0 199L28.5 193.7C57 188.3 114 177.7 171.2 170.8C228.3 164 285.7 161 342.8 163.3C400 165.7 457 173.3 514.2 179.2C571.3 185 628.7 189 685.8 186C743 183 800 173 857.2 171.7C914.3 170.3 971.7 177.7 1028.8 182.2C1086 186.7 1143 188.3 1171.5 189.2L1200 190L1200 301L1171.5 301C1143 301 1086 301 1028.8 301C971.7 301 914.3 301 857.2 301C800 301 743 301 685.8 301C628.7 301 571.3 301 514.2 301C457 301 400 301 342.8 301C285.7 301 228.3 301 171.2 301C114 301 57 301 28.5 301L0 301Z" fill="#678cce"></path><path d="M0 199L28.5 199.7C57 200.3 114 201.7 171.2 201.3C228.3 201 285.7 199 342.8 200C400 201 457 205 514.2 208.7C571.3 212.3 628.7 215.7 685.8 215.2C743 214.7 800 210.3 857.2 204.7C914.3 199 971.7 192 1028.8 194.2C1086 196.3 1143 207.7 1171.5 213.3L1200 219L1200 301L1171.5 301C1143 301 1086 301 1028.8 301C971.7 301 914.3 301 857.2 301C800 301 743 301 685.8 301C628.7 301 571.3 301 514.2 301C457 301 400 301 342.8 301C285.7 301 228.3 301 171.2 301C114 301 57 301 28.5 301L0 301Z" fill="#6661ab"></path><path d="M0 240L28.5 240C57 240 114 240 171.2 237.3C228.3 234.7 285.7 229.3 342.8 228.7C400 228 457 232 514.2 236.5C571.3 241 628.7 246 685.8 250.2C743 254.3 800 257.7 857.2 258.8C914.3 260 971.7 259 1028.8 259C1086 259 1143 260 1171.5 260.5L1200 261L1200 301L1171.5 301C1143 301 1086 301 1028.8 301C971.7 301 914.3 301 857.2 301C800 301 743 301 685.8 301C628.7 301 571.3 301 514.2 301C457 301 400 301 342.8 301C285.7 301 228.3 301 171.2 301C114 301 57 301 28.5 301L0 301Z" fill="#66347f"></path></svg>