<svg id="visual" viewBox="0 0 1200 300" width="1200" height="300" xmlns="http://www.w3.org/2000/svg" xmlns:xlink="http://www.w3.org/1999/xlink" version="1.1"><rect x="0" y="0" width="1200" height="300" fill="#66347F"></rect><path d="M0 117L28.5 106C57 95 114 73 171.2 76.8C228.3 80.7 285.7 110.3 342.8 125.7C400 141 457 142 514.2 130.5C571.3 119 628.7 95 685.8 92.5C743 90 800 109 857.2 105.7C914.3 102.3 971.7 76.7 1028.8 75.7C1086 74.7 1143 98.3 1171.5 110.2L1200 122L1200 301L1171.5 301C1143 301 1086 301 1028.8 301C971.7 301 914.3 301 857.2 301C800 301 743 301 685.8 301C628.7 301 571.3 301 514.2 301C457 301 400 301 342.8 301C285.7 301 228.3 301 171.2 301C114 301 57 301 28.5 301L0 301Z" fill="#9e4784"></path><path d="M0 168L28.5 158.8C57 149.7 114 131.3 171.2 121.3C228.3 111.3 285.7 109.7 342.8 107C400 104.3 457 100.7 514.2 108.8C571.3 117 628.7 137 685.8 144.7C743 152.3 800 147.7 857.2 143.3C914.3 139 971.7 135 1028.8 132C1086 129 1143 127 1171.5 126L1200 125L1200 301L1171.5 301C1143 301 1086 301 1028.8 301C971.7 301 914.3 301 857.2 301C800 301 743 301 685.8 301C628.7 301 571.3 301 514.2 301C457 301 400 301 342.8 301C285.7 301 228.3 301 171.2 301C114 301 57 301 28.5 301L0 301Z" fill="#ad5183"></path><path d="M0 173L28.5 171.3C57 169.7 114 166.3 171.2 172C228.3 177.7 285.7 192.3 342.8 198.3C400 204.3 457 201.7 514.2 201.2C571.3 200.7 628.7 202.3 685.8 193.5C743 184.7 800 165.3 857.2 155.8C914.3 146.3 971.7 146.7 1028.8 157.3C1086 168 1143 189 1171.5 199.5L1200 210L1200 301L1171.5 301C1143 301 1086 301 1028.8 301C971.7 301 914.3 301 857.2 301C800 301 743 301 685.8 301C628.7 301 571.3 301 514.2 301C457 301 400 301 342.8 301C285.7 301 228.3 301 171.2 301C114 301 57 301 28.5 301L0 301Z" fill="#bb5c83"></path><path d="M0 196L28.5 202.3C57 208.7 114 221.3 171.2 226.8C228.3 232.3 285.7 230.7 342.8 231.8C400 233 457 237 514.2 234.5C571.3 232 628.7 223 685.8 215.2C743 207.3 800 200.7 857.2 196.3C914.3 192 971.7 190 1028.8 192C1086 194 1143 200 1171.5 203L1200 206L1200 301L1171.5 301C1143 301 1086 301 1028.8 301C971.7 301 914.3 301 857.2 301C800 301 743 301 685.8 301C628.7 301 571.3 301 514.2 301C457 301 400 301 342.8 301C285.7 301 228.3 301 171.2 301C114 301 57 301 28.5 301L0 301Z" fill="#c76984"></path><path d="M0 269L28.5 266.3C57 263.7 114 258.3 171.2 258.2C228.3 258 285.7 263 342.8 262.5C400 262 457 256 514.2 248.7C571.3 241.3 628.7 232.7 685.8 231.3C743 230 800 236 857.2 236.7C914.3 237.3 971.7 232.7 1028.8 229.8C1086 227 1143 226 1171.5 225.5L1200 225L1200 301L1171.5 301C1143 301 1086 301 1028.8 301C971.7 301 914.3 301 857.2 301C800 301 743 301 685.8 301C628.7 301 571.3 301 514.2 301C457 301 400 301 342.8 301C285.7 301 228.3 301 171.2 301C114 301 57 301 28.5 301L0 301Z" fill="#d27685"></path></svg>