<svg id="visual" viewBox="0 0 1200 300" width="1200" height="300" xmlns="http://www.w3.org/2000/svg" xmlns:xlink="http://www.w3.org/1999/xlink" version="1.1"><rect x="0" y="0" width="1200" height="300" fill="#000e26"></rect><path d="M0 242L28.5 232.3C57 222.7 114 203.3 171.2 201C228.3 198.7 285.7 213.3 342.8 213.5C400 213.7 457 199.3 514.2 193.8C571.3 188.3 628.7 191.7 685.8 200.3C743 209 800 223 857.2 229.3C914.3 235.7 971.7 234.3 1028.8 226.7C1086 219 1143 205 1171.5 198L1200 191L1200 0L1171.5 0C1143 0 1086 0 1028.8 0C971.7 0 914.3 0 857.2 0C800 0 743 0 685.8 0C628.7 0 571.3 0 514.2 0C457 0 400 0 342.8 0C285.7 0 228.3 0 171.2 0C114 0 57 0 28.5 0L0 0Z" fill="#4b56d2"></path><path d="M0 141L28.5 146.7C57 152.3 114 163.7 171.2 163C228.3 162.3 285.7 149.7 342.8 149.5C400 149.3 457 161.7 514.2 161.2C571.3 160.7 628.7 147.3 685.8 140.5C743 133.7 800 133.3 857.2 135.8C914.3 138.3 971.7 143.7 1028.8 148.7C1086 153.7 1143 158.3 1171.5 160.7L1200 163L1200 0L1171.5 0C1143 0 1086 0 1028.8 0C971.7 0 914.3 0 857.2 0C800 0 743 0 685.8 0C628.7 0 571.3 0 514.2 0C457 0 400 0 342.8 0C285.7 0 228.3 0 171.2 0C114 0 57 0 28.5 0L0 0Z" fill="#9651bc"></path><path d="M0 106L28.5 108C57 110 114 114 171.2 111.7C228.3 109.3 285.7 100.7 342.8 98.7C400 96.7 457 101.3 514.2 107.2C571.3 113 628.7 120 685.8 123.8C743 127.7 800 128.3 857.2 125.3C914.3 122.3 971.7 115.7 1028.8 117C1086 118.3 1143 127.7 1171.5 132.3L1200 137L1200 0L1171.5 0C1143 0 1086 0 1028.8 0C971.7 0 914.3 0 857.2 0C800 0 743 0 685.8 0C628.7 0 571.3 0 514.2 0C457 0 400 0 342.8 0C285.7 0 228.3 0 171.2 0C114 0 57 0 28.5 0L0 0Z" fill="#ba55a4"></path><path d="M0 112L28.5 111.2C57 110.3 114 108.7 171.2 107.7C228.3 106.7 285.7 106.3 342.8 104.7C400 103 457 100 514.2 97.2C571.3 94.3 628.7 91.7 685.8 92.7C743 93.7 800 98.3 857.2 99C914.3 99.7 971.7 96.3 1028.8 91.8C1086 87.3 1143 81.7 1171.5 78.8L1200 76L1200 0L1171.5 0C1143 0 1086 0 1028.8 0C971.7 0 914.3 0 857.2 0C800 0 743 0 685.8 0C628.7 0 571.3 0 514.2 0C457 0 400 0 342.8 0C285.7 0 228.3 0 171.2 0C114 0 57 0 28.5 0L0 0Z" fill="#cc6391"></path><path d="M0 29L28.5 29C57 29 114 29 171.2 30.5C228.3 32 285.7 35 342.8 38.8C400 42.7 457 47.3 514.2 45C571.3 42.7 628.7 33.3 685.8 36C743 38.7 800 53.3 857.2 60.5C914.3 67.7 971.7 67.3 1028.8 62.8C1086 58.3 1143 49.7 1171.5 45.3L1200 41L1200 0L1171.5 0C1143 0 1086 0 1028.8 0C971.7 0 914.3 0 857.2 0C800 0 743 0 685.8 0C628.7 0 571.3 0 514.2 0C457 0 400 0 342.8 0C285.7 0 228.3 0 171.2 0C114 0 57 0 28.5 0L0 0Z" fill="#d27685"></path></svg>